<svg width="17" height="16" fill="none" xmlns="http://www.w3.org/2000/svg"><path fill-rule="evenodd" clip-rule="evenodd" d="M.64587 1.15641c0-.36819.29848-.66666.66667-.66666h2.60745c.31775 0 .59134.22425.6537.53582l.5451 2.72349H15.6535c.1987 0 .387.08861.5137.2417a.6669.6669 0 0 1 .1412.54985l-1.043 5.46909-.001.005a1.9701 1.9701 0 0 1-.6971 1.151 1.96987 1.96987 0 0 1-1.2662.4353H6.97639a1.97016 1.97016 0 0 1-1.26623-.4353 1.97024 1.97024 0 0 1-.69696-1.1504l-.00012-.0006-1.08876-5.43975a.66245.66245 0 0 1-.01113-.05559l-.53966-2.69628H1.31254c-.36819 0-.66667-.29848-.66667-.66667ZM6.5285 12.8757c-.72795 0-1.31807.5901-1.31807 1.3181 0 .7279.59012 1.318 1.31807 1.318.72794 0 1.31806-.5901 1.31806-1.318 0-.728-.59012-1.3181-1.31806-1.3181Zm7.17 0c-.728 0-1.3181.5901-1.3181 1.3181 0 .7279.5901 1.318 1.3181 1.318.7279 0 1.3181-.5901 1.3181-1.318 0-.728-.5902-1.3181-1.3181-1.3181Z" fill="#2D3440"/></svg>