<svg width="17" height="16" fill="none" xmlns="http://www.w3.org/2000/svg"><path fill-rule="evenodd" clip-rule="evenodd" d="M1.31254.48959c-.36819 0-.66667.29847-.66667.66666s.29848.66667.66667.66667h2.06099l.53966 2.69628a.66245.66245 0 0 0 .01113.05559l1.08876 5.43981.00012.0005c.09018.4534.33688.8606.69696 1.1505a1.97072 1.97072 0 0 0 1.26623.4353h6.32471c.4599.0071.9079-.1468 1.2662-.4353.3603-.29.607-.6975.6971-1.151l.001-.005 1.043-5.46915a.6669.6669 0 0 0-.1412-.54985.66677.66677 0 0 0-.5137-.2417H5.11879l-.5451-2.72349c-.06236-.31157-.33595-.53582-.6537-.53582H1.31254Zm5.00814 9.26426-.93502-4.67162h9.46204l-.8915 4.67463a.63662.63662 0 0 1-.2249.37004.6367.6367 0 0 1-.4117.1407v-.0001H6.9707v-.0001l-.01277.0002a.63663.63663 0 0 1-.41169-.1407.63681.63681 0 0 1-.22537-.37209l-.00019-.00096ZM5.21043 14.1936c0-.7279.59012-1.3181 1.31807-1.3181.72794 0 1.31806.5902 1.31806 1.3181 0 .728-.59012 1.3181-1.31806 1.3181-.72795 0-1.31807-.5901-1.31807-1.3181Zm7.16997 0c0-.7279.5901-1.3181 1.3181-1.3181.7279 0 1.3181.5902 1.3181 1.3181 0 .728-.5902 1.3181-1.3181 1.3181-.728 0-1.3181-.5901-1.3181-1.3181Z" fill="#2D3440"/></svg>