<svg width="8" height="6" fill="none" xmlns="http://www.w3.org/2000/svg"><path fill-rule="evenodd" clip-rule="evenodd" d="M1.35355.14645c-.19526-.19527-.51184-.19527-.7071 0-.19527.19526-.19527.51184 0 .7071L2.79289 3 .64645 5.14645c-.19527.19526-.19527.51184 0 .7071.19526.19527.51184.19527.7071 0l2.5-2.5c.19527-.19526.19527-.51184 0-.7071l-2.5-2.5Zm3.49997 0c-.19526-.19527-.51184-.19527-.7071 0-.19527.19526-.19527.51184 0 .7071L6.29286 3 4.14642 5.14645c-.19527.19526-.19527.51184 0 .7071.19526.19527.51184.19527.7071 0l2.5-2.5c.19526-.19526.19526-.51184 0-.7071l-2.5-2.5Z" fill="#2D3440"/></svg>