<svg width="16" height="16" fill="none" xmlns="http://www.w3.org/2000/svg"><g clip-path="url(#a)"><path fill-rule="evenodd" clip-rule="evenodd" d="m2.29983 1.33333-.00371.00001a.96276.96276 0 0 0-.96276.96276V13.702c0 .2554.10144.5003.28199.6808a.96256.96256 0 0 0 .68077.282H13.7021c.2553 0 .5002-.1014.6807-.282a.96244.96244 0 0 0 .282-.6808c0-.0113.0003-.0227.0009-.0339V2.29609c0-.24852-.0748-.47358-.282-.68077-.1555-.15551-.2284-.20388-.2861-.22938-.0545-.02408-.1529-.05261-.3947-.05261H2.29983ZM15.8385 14.5433a2.29657 2.29657 0 0 1-.5129.7823 2.296 2.296 0 0 1-1.6235.6725H2.29612A2.29609 2.29609 0 0 1 .00003 13.702V2.2961A2.2961 2.2961 0 0 1 1.45835.1583C1.57461.05957 1.72518 0 1.88966 0H13.7029c.3375 0 .6429.0379.9336.16636.2875.12703.5011.31728.69.50615.4815.48156.6725 1.05738.6725 1.62358V14.1094c0 .1657-.0605.3173-.1605.4339Z" fill="#2D3440"/></g><defs><clipPath id="a"><path fill="#fff" d="M0 0h16v16H0z"/></clipPath></defs></svg>