<svg width="24" height="24" fill="none" xmlns="http://www.w3.org/2000/svg"><path fill-rule="evenodd" clip-rule="evenodd" d="M24 12c0 6.6274-5.3726 12-12 12-6.62742 0-12-5.3726-12-12C0 5.37258 5.37258 0 12 0c6.6274 0 12 5.37258 12 12Zm-9.5268-5.964C13.8336 6.006 13.6302 6 12 6c-1.6302 0-1.8336.0078-2.4732.036-.6396.03-1.074.1302-1.4568.279a2.93825 2.93825 0 0 0-1.0632.6918A2.92795 2.92795 0 0 0 6.315 8.07c-.1488.3828-.249.8172-.279 1.4568C6.006 10.1664 6 10.3698 6 12c0 1.6302.0078 1.8336.036 2.4732.03.639.1302 1.0746.279 1.4568a2.9423 2.9423 0 0 0 .6918 1.0632c.29972.3054.6626.5415 1.0632.6918.3828.1482.8178.249 1.4568.279.6396.03.843.036 2.4732.036 1.6302 0 1.8336-.0078 2.4732-.036.639-.03 1.0746-.1308 1.4568-.279a2.94793 2.94793 0 0 0 1.0632-.6918c.3055-.2996.5416-.6625.6918-1.0632.1482-.3828.249-.8178.279-1.4568.03-.6396.036-.843.036-2.4732 0-1.6302-.0078-1.8336-.036-2.4732-.03-.639-.1308-1.0746-.279-1.4568a2.94438 2.94438 0 0 0-.6918-1.0632c-.3336-.333-.6672-.5394-1.0632-.6918-.3828-.1488-.8178-.249-1.4568-.279ZM9.87868 9.87868A3.0001 3.0001 0 0 1 12 9a3.00002 3.00002 0 0 1 3 3 3.00008 3.00008 0 0 1-3 3 3.00002 3.00002 0 0 1-3-3c0-.7956.31607-1.5587.87868-2.12132Zm5.80162-1.55901A.74983.74983 0 0 1 15.9 8.85a.74983.74983 0 0 1-.2197.53033A.74987.74987 0 0 1 15.15 9.6a.74987.74987 0 0 1-.5303-.21967A.74983.74983 0 0 1 14.4 8.85c0-.19891.079-.38968.2197-.53033A.74987.74987 0 0 1 15.15 8.1c.1989 0 .3897.07902.5303.21967Zm-2.4075 2.40753A1.7999 1.7999 0 0 0 12 10.2c-.4774 0-.9352.1896-1.2728.5272A1.7999 1.7999 0 0 0 10.2 12c0 .4774.1896.9352.5272 1.2728A1.7999 1.7999 0 0 0 12 13.8c.4774 0 .9352-.1896 1.2728-.5272A1.7999 1.7999 0 0 0 13.8 12c0-.4774-.1896-.9352-.5272-1.2728Z" fill="#FCFCFC"/></svg>