<svg width="16" height="16" fill="none" xmlns="http://www.w3.org/2000/svg"><path fill-rule="evenodd" clip-rule="evenodd" d="M1.91286 7.24625c0-2.94552 2.38782-5.33333 5.33334-5.33333 2.9455 0 5.3333 2.38781 5.3333 5.33333 0 1.43922-.57 2.74529-1.4967 3.70475a.65528.65528 0 0 0-.0705.0614.65528.65528 0 0 0-.0614.0705c-.95944.9266-2.2655 1.4967-3.7047 1.4967-2.94552 0-5.33334-2.3878-5.33334-5.33335Zm9.55244 5.16195c-1.1492.9405-2.61827 1.5047-4.2191 1.5047-3.6819 0-6.66667-2.9848-6.66667-6.66665 0-3.6819 2.98477-6.66667 6.66667-6.66667 3.6819 0 6.6667 2.98477 6.6667 6.66667 0 1.60086-.5643 3.06995-1.5048 4.21915l2.8095 2.8095c.2603.2603.2603.6824 0 .9428-.2604.2603-.6825.2603-.9428 0l-2.8095-2.8095Z" fill="#2D3440"/></svg>